<?xml version="1.0" encoding="UTF-8" standalone="no"?>
<!-- Created with Inkscape (http://www.inkscape.org/) -->
<svg
   xmlns:dc="http://purl.org/dc/elements/1.1/"
   xmlns:cc="http://web.resource.org/cc/"
   xmlns:rdf="http://www.w3.org/1999/02/22-rdf-syntax-ns#"
   xmlns:svg="http://www.w3.org/2000/svg"
   xmlns="http://www.w3.org/2000/svg"
   xmlns:sodipodi="http://inkscape.sourceforge.net/DTD/sodipodi-0.dtd"
   xmlns:inkscape="http://www.inkscape.org/namespaces/inkscape"
   width="596"
   height="556"
   id="svg2"
   sodipodi:version="0.32"
   inkscape:version="0.43"
   sodipodi:docbase="s:\soft\Inkscape"
   sodipodi:docname="xo_game.svg"
   version="1.0">
  <defs
     id="defs4" />
  <sodipodi:namedview
     id="base"
     pagecolor="#ffffff"
     bordercolor="#666666"
     borderopacity="1.0"
     inkscape:pageopacity="0.0"
     inkscape:pageshadow="2"
     inkscape:zoom="0.5"
     inkscape:cx="375"
     inkscape:cy="280"
     inkscape:document-units="px"
     inkscape:current-layer="layer1"
     inkscape:window-width="1024"
     inkscape:window-height="719"
     inkscape:window-x="-4"
     inkscape:window-y="-4" />
  <metadata
     id="metadata7">
    <rdf:RDF>
      <cc:Work
         rdf:about="">
        <dc:format>image/svg+xml</dc:format>
        <dc:type
           rdf:resource="http://purl.org/dc/dcmitype/StillImage" />
      </cc:Work>
    </rdf:RDF>
  </metadata>
  <g
     inkscape:label="Layer 1"
     inkscape:groupmode="layer"
     id="layer1">
    <path
       style="fill:#000000;fill-opacity:1;fill-rule:nonzero;stroke:none;stroke-width:1px;stroke-linecap:butt;stroke-linejoin:miter;stroke-opacity:1"
       id="path1313"
       d="M 197.04201,0.33146 C 206.81073,181.55357 208.47518,363.95062 206.61915,545.5889 L 186.0057,556 C 196.85374,375.72976 199.5351,191.37182 172.82991,12.66815 L 197.04201,0.33146 z " />
    <path
       style="fill:#000000;fill-opacity:1;fill-rule:nonzero;stroke:none;stroke-width:1px;stroke-linecap:butt;stroke-linejoin:miter;stroke-opacity:1"
       id="path1315"
       d="M 382.17349,34.14425 C 389.75503,30.02944 396.96508,25.14064 404.91809,21.79984 C 412.33536,18.68408 402.99606,37.79294 402.69205,45.8323 C 401.26896,83.46528 402.15533,121.05035 402.60218,158.69531 C 403.86797,265.33329 401.86322,371.08659 393.29359,477.39863 C 391.89734,493.80089 390.4513,510.1988 389.04509,526.6001 L 365.67549,538.1869 C 368.01704,521.3585 370.41864,504.5379 372.58873,487.68602 C 387.63429,364.17068 389.53646,241.47346 383.04957,117.24679 C 382.8899,114.18911 372.4629,39.43865 380.4695,33.25035 C 387.87533,27.52639 396.26158,23.19801 404.15762,18.17184 L 382.17349,34.14425 z " />
    <path
       style="fill:#000000;fill-opacity:1;fill-rule:nonzero;stroke:none;stroke-width:1px;stroke-linecap:butt;stroke-linejoin:miter;stroke-opacity:1"
       id="path1319"
       d="M 21.984131,223.88612 C 212.83617,203.31767 404.82919,192.94723 596.252,177.63636 L 578.57709,190.66031 C 385.43251,201.11263 191.37674,211.61568 0,239.85853 L 21.984131,223.88612 z " />
    <path
       style="fill:#000000;fill-opacity:1;fill-rule:nonzero;stroke:none;stroke-width:1px;stroke-linecap:butt;stroke-linejoin:miter;stroke-opacity:1"
       id="path1323"
       d="M 39.126978,372.45755 C 198.49576,345.49326 362.40293,346.0278 523.84316,338.01351 C 569.06552,335.86076 547.69727,336.84446 587.94697,335.04148 L 569.56863,348.48733 C 530.64455,349.30652 551.32829,348.82335 507.51833,349.97536 C 344.01043,355.04816 177.71858,355.60015 17.142852,388.42996 L 39.126978,372.45755 z " />
    <path
       style="fill:#000000;fill-opacity:1;fill-rule:nonzero;stroke:none;stroke-width:1px;stroke-linecap:butt;stroke-linejoin:miter;stroke-opacity:1"
       id="path2232"
       d="M 26.396157,412.00119 C 70.113159,440.87657 104.76562,483.11381 133.9295,526.2502 L 119.40651,534.7337 C 92.410331,491.11212 57.003223,447.17886 11.020812,423.17203 L 26.396157,412.00119 z " />
    <path
       style="fill:#000000;fill-opacity:1;fill-rule:nonzero;stroke:none;stroke-width:1px;stroke-linecap:butt;stroke-linejoin:miter;stroke-opacity:1"
       id="path2234"
       d="M 140.78928,386.29843 C 99.075729,420.01557 56.730073,534.5089 22.628284,539.1936 C 26.325332,535.4322 28.677861,530.6724 31.390007,526.2889 L 48.427075,518.2985 C 45.649366,522.8964 43.239757,528.0398 39.379758,532.0342 C 38.364639,533.4239 37.349519,534.8135 36.334393,536.2032 C 29.970078,539.3296 23.605763,542.4561 17.241448,545.5825 C 7.886914,549.0965 27.876176,528.6532 33.574345,520.4443 C 63.096641,477.91383 92.630161,435.27674 123.25202,393.5626 L 140.78928,386.29843 z " />
    <path
       style="fill:#121b88;fill-opacity:1;fill-rule:nonzero;stroke:none;stroke-width:1px;stroke-linecap:butt;stroke-linejoin:miter;stroke-opacity:1"
       id="path2242"
       d="M 74.831347,255.61647 C 72.818378,281.72217 55.903463,340.29657 98.502639,336.76744 C 115.76129,331.89129 142.83549,317.98125 127.04774,289.2263 C 121.28143,271.28174 112.32424,253.11853 91.237262,254.6271 C 67.261549,262.71371 70.430078,245.16202 70.221189,274.06334 C 70.563328,274.59609 70.905478,275.12883 71.247628,275.66158 L 55.074963,285.06722 C 54.645843,284.35667 54.216734,283.64612 53.787614,282.93557 C 53.252774,253.84472 82.339155,248.08923 106.04464,243.3294 C 127.40555,244.40557 137.12776,261.05863 143.0597,280.06521 C 162.66945,314.41227 111.74984,338.81112 83.990964,347.68135 C 41.138198,347.3286 57.404663,292.47126 57.897792,264.24455 L 74.831347,255.61647 z " />
    <path
       style="fill:#000000;fill-opacity:1;fill-rule:nonzero;stroke:none;stroke-width:1px;stroke-linecap:butt;stroke-linejoin:miter;stroke-opacity:1"
       id="path2244"
       d="M 422.39603,372.00119 C 454.30268,383.21157 480.67543,407.42451 500.77642,434.22618 C 516.46401,451.14358 532.67909,467.61653 549.22414,483.71524 L 533.9214,493.08923 C 517.81145,476.41614 500.72106,460.6648 485.07256,443.56011 C 465.78519,416.7346 440.15661,390.88326 407.02069,383.17203 L 422.39603,372.00119 z " />
    <path
       style="fill:#000000;fill-opacity:1;fill-rule:nonzero;stroke:none;stroke-width:1px;stroke-linecap:butt;stroke-linejoin:miter;stroke-opacity:1"
       id="path2246"
       d="M 516.33286,371.17203 C 505.25851,368.28661 463.26099,424.84838 444.13125,461.55952 C 441.4135,470.72256 439.01254,477.44727 432.83884,484.73169 L 415.85619,491.78509 C 422.3798,484.59616 425.09064,478.01291 428.20716,468.70607 C 451.02922,427.60157 482.74909,371.55217 531.70819,360.00119 L 516.33286,371.17203 z " />
    <path
       style="fill:#121b88;fill-opacity:1;fill-rule:nonzero;stroke:none;stroke-width:1px;stroke-linecap:butt;stroke-linejoin:miter;stroke-opacity:1"
       id="path2248"
       d="M 264.33294,419.17203 C 257.80921,422.17803 246.13328,418.0269 269.53413,415.22753 C 277.87458,414.22979 259.65827,429.18826 257.26975,437.24143 C 251.66852,456.12666 253.72815,476.56766 268.79535,489.958 C 268.69901,490.07096 317.27448,503.01511 317.23572,503.03637 C 294.81262,515.3384 303.17046,510.793 309.40128,504.301 C 326.45591,487.16213 338.83619,471.78318 332.39782,446.82677 C 325.85205,435.81877 315.38114,430.24606 307.34573,420.23954 C 289.95105,397.25244 258.51683,410.76833 280.85685,398.69243 C 275.54491,405.02072 269.46978,410.43473 263.10889,415.67045 L 245.87602,422.86483 C 252.07893,417.43474 258.71217,412.39652 263.66429,405.64892 C 288.33008,390.28372 302.60415,388.47537 323.34289,410.66355 C 331.46258,420.51026 342.41981,426.43004 348.24342,438.03398 C 357.51321,462.69811 342.76099,480.37429 326.33655,497.18654 C 304.48583,522.054 279.52203,512.0124 253.52738,499.40802 C 224.79839,472.40665 239.78054,414.50773 279.70827,408.00119 L 264.33294,419.17203 z " />
    <path
       style="fill:#000000;fill-opacity:1;fill-rule:nonzero;stroke:none;stroke-width:1px;stroke-linecap:butt;stroke-linejoin:miter;stroke-opacity:1"
       id="path2250"
       d="M 454.39602,44.00119 C 487.06861,58.25634 512.43731,85.53751 540.67038,106.88167 C 547.19745,105.87965 517.6245,119.78862 523.40227,116.59111 C 528.86163,113.56983 534.17537,110.29258 539.56193,107.14331 L 523.10335,116.41393 C 545.96914,99.38737 545.6176,105.63114 524.99408,116.7445 C 499.28685,93.56702 472.23773,66.29333 439.02068,55.17203 L 454.39602,44.00119 z " />
    <path
       style="fill:#000000;fill-opacity:1;fill-rule:nonzero;stroke:none;stroke-width:1px;stroke-linecap:butt;stroke-linejoin:miter;stroke-opacity:1"
       id="path2252"
       d="M 526.33285,31.17203 C 521.01464,32.53734 512.79858,29.82636 537.27851,24.76949 C 539.71099,24.267 533.66299,28.18398 531.99958,30.02857 C 526.08012,36.59282 516.72088,48.61695 511.90946,54.74233 C 484.61907,89.48547 457.04554,124.26762 431.43478,160.27548 L 415.52973,167.13085 C 454.72546,117.18677 489.15024,54.32984 541.70819,20.00119 L 526.33285,31.17203 z " />
    <path
       style="fill:#121b88;fill-opacity:1;fill-rule:nonzero;stroke:none;stroke-width:1px;stroke-linecap:butt;stroke-linejoin:miter;stroke-opacity:1"
       id="path2254"
       d="M 250.83129,245.61647 C 249.69046,268.80453 247.20331,290.89697 265.40638,307.52222 C 285.47902,321.60462 303.16956,322.1612 324.95814,312.12525 C 331.94589,308.91004 366.11165,293.17418 334.48495,309.06412 C 326.93606,312.85685 335.98916,292.18094 335.57247,283.7431 C 338.01896,263.24801 329.70575,251.05617 311.97826,242.21697 C 292.89235,229.62552 230.07145,250.4625 259.75788,235.36644 C 256.47869,247.66551 250.46853,258.83293 245.28502,270.39886 L 228.25754,278.17786 C 233.45351,266.41319 240.43588,255.44779 242.69067,242.53352 C 267.62453,226.06574 298.49092,221.01229 327.45719,231.96616 C 345.19107,241.21956 354.574,254.54906 352.00938,275.3181 C 353.37329,305.90687 340.20025,312.56845 310.86805,323.31406 C 288.54157,333.40811 270.12133,331.83915 250.06998,317.15335 C 230.43971,301.38087 234.55182,277.05567 233.89774,254.24455 L 250.83129,245.61647 z " />
    <path
       style="fill:#000000;fill-opacity:1;fill-rule:nonzero;stroke:none;stroke-width:1px;stroke-linecap:butt;stroke-linejoin:miter;stroke-opacity:1"
       id="path2256"
       d="M 442.39602,214.00119 C 480.20517,230.64192 496.87496,284.81685 535.73063,298.18444 C 538.59494,298.7299 540.97677,300.47383 543.5931,301.61559 L 528.02113,311.84614 C 525.4638,310.80514 523.12843,309.10644 520.31506,308.70928 C 483.1559,292.4457 468.2356,237.36814 427.02068,225.17203 L 442.39602,214.00119 z " />
    <path
       style="fill:#000000;fill-opacity:1;fill-rule:nonzero;stroke:none;stroke-width:1px;stroke-linecap:butt;stroke-linejoin:miter;stroke-opacity:1"
       id="path2258"
       d="M 526.33285,233.17203 C 524.05164,231.23956 449.87586,297.07698 431.60244,316.30835 C 428.7091,319.02378 424.12511,318.96715 420.38644,320.29654 L 437.38652,312.30345 C 428.69951,318.87162 454.30699,331.60538 416.83789,327.84009 C 420.61364,294.99705 508.83779,238.77457 541.70819,222.00119 L 526.33285,233.17203 z " />
    <path
       style="fill:#000000;fill-opacity:1;fill-rule:nonzero;stroke:none;stroke-width:1px;stroke-linecap:butt;stroke-linejoin:miter;stroke-opacity:1"
       id="path2296"
       d="M 482.67188,-0.92674 C 488.21515,165.18688 442.49751,334.91555 457.58029,500.00238 L 441.03027,508.2108 C 480.66056,347.76693 471.55856,171.28551 466.057,7.53896 L 482.67188,-0.92674 z " />
  </g>
</svg>
